<svg width="862" height="101" viewBox="0 0 8620 1017" fill="none" xmlns="http://www.w3.org/2000/svg">
<path d="M238.439 995.188H0V209.944C0 111.788 76.3004 53.1675 156.688 53.1675C220.726 53.1675 276.589 74.9799 309.289 126.784L633.566 640.737V74.9799H872.005V860.224C872.005 958.379 795.704 1015.64 715.317 1015.64C652.641 1015.64 595.416 993.824 562.716 942.02L238.439 428.067V995.188Z" fill="#006DF4"/>
<path d="M1389.81 1015.64C1177.26 1015.64 1015.12 852.044 1015.12 653.007C1015.12 455.332 1177.26 291.74 1389.81 291.74C1602.36 291.74 1764.5 455.332 1764.5 653.007C1764.5 852.044 1602.36 1015.64 1389.81 1015.64ZM1389.81 785.244C1467.47 785.244 1519.25 725.26 1519.25 654.37C1519.25 582.117 1467.47 522.133 1389.81 522.133C1312.15 522.133 1260.37 582.117 1260.37 654.37C1260.37 725.26 1312.15 785.244 1389.81 785.244Z" fill="#006DF4"/>
<path d="M2221.42 1015.64C2008.87 1015.64 1846.73 853.407 1846.73 655.733C1846.73 437.61 1991.16 293.103 2207.79 293.103C2258.21 293.103 2308.62 308.099 2350.86 331.275V0H2596.11V655.733C2596.11 864.314 2439.42 1015.64 2221.42 1015.64ZM2221.42 785.244C2299.08 785.244 2350.86 726.623 2350.86 654.37C2350.86 583.48 2299.08 523.496 2221.42 523.496C2143.76 523.496 2091.98 583.48 2091.98 654.37C2091.98 726.623 2143.76 785.244 2221.42 785.244Z" fill="#006DF4"/>
<path d="M3086.45 1014.27C2868.45 1014.27 2704.95 869.767 2704.95 646.19C2704.95 449.879 2852.1 286.287 3067.38 286.287C3290.83 286.287 3414.82 452.606 3414.82 635.284V696.631H2940.66C2957.01 764.795 3008.79 805.693 3083.73 805.693C3149.13 805.693 3200.9 770.248 3225.43 717.08L3413.45 811.146C3354.87 937.93 3239.05 1014.27 3086.45 1014.27ZM2951.56 569.847H3170.93C3160.03 531.676 3121.88 496.231 3064.65 496.231C3006.06 496.231 2966.55 530.312 2951.56 569.847Z" fill="#006DF4"/>
<path d="M3604.95 845.228L3441.45 74.9799H3693.51L3812.05 704.811L3915.6 246.752C3945.58 111.788 4009.62 54.5308 4107.72 54.5308C4205.82 54.5308 4269.85 111.788 4299.83 246.752L4403.38 704.811L4521.92 74.9799H4773.98L4610.48 845.228C4587.32 955.653 4513.74 1017 4414.28 1017C4324.35 1017 4243.97 957.016 4220.8 856.134L4107.72 358.54L3994.63 856.134C3971.46 957.016 3891.08 1017 3801.15 1017C3701.69 1017 3628.11 955.653 3604.95 845.228Z" fill="#006DF4"/>
<path d="M5121.11 1015.64C4922.19 1015.64 4787.3 852.044 4787.3 653.007C4787.3 455.332 4949.44 291.74 5161.99 291.74C5379.99 291.74 5536.68 444.426 5536.68 653.007V995.188H5305.05V944.747C5261.45 989.735 5200.14 1015.64 5121.11 1015.64ZM5161.99 785.244C5239.65 785.244 5291.43 725.26 5291.43 654.37C5291.43 582.117 5239.65 522.133 5161.99 522.133C5084.33 522.133 5032.55 582.117 5032.55 654.37C5032.55 725.26 5084.33 785.244 5161.99 785.244Z" fill="#006DF4"/>
<path d="M5918.02 995.188H5672.77V617.562C5672.77 436.247 5776.32 291.74 5998.41 291.74C6044.73 291.74 6095.15 299.92 6129.21 314.916V550.761C6096.51 533.039 6055.63 523.496 6021.57 523.496C5957.53 523.496 5918.02 560.304 5918.02 625.741V995.188Z" fill="#006DF4"/>
<path d="M6565.74 1015.64C6353.19 1015.64 6191.05 853.407 6191.05 655.733C6191.05 437.61 6335.48 293.103 6552.12 293.103C6602.53 293.103 6652.94 308.099 6695.18 331.275V0H6940.43V655.733C6940.43 864.314 6783.74 1015.64 6565.74 1015.64ZM6565.74 785.244C6643.41 785.244 6695.18 726.623 6695.18 654.37C6695.18 583.48 6643.41 523.496 6565.74 523.496C6488.08 523.496 6436.31 583.48 6436.31 654.37C6436.31 726.623 6488.08 785.244 6565.74 785.244Z" fill="#006DF4"/>
<path d="M7430.78 1014.27C7212.77 1014.27 7049.27 869.767 7049.27 646.19C7049.27 449.879 7196.42 286.287 7411.7 286.287C7635.15 286.287 7759.14 452.606 7759.14 635.284V696.631H7284.99C7301.34 764.795 7353.11 805.693 7428.05 805.693C7493.45 805.693 7545.23 770.248 7569.75 717.08L7757.78 811.146C7699.19 937.93 7583.38 1014.27 7430.78 1014.27ZM7295.89 569.847H7515.25C7504.35 531.676 7466.2 496.231 7408.98 496.231C7350.39 496.231 7310.88 530.312 7295.89 569.847Z" fill="#006DF4"/>
<path d="M8250.76 531.676C8160.84 531.676 8126.77 603.929 8126.77 689.815V995.188H7881.52V659.823C7881.52 459.422 7998.7 293.103 8250.76 293.103C8502.82 293.103 8620 459.422 8620 659.823V995.188H8374.75V689.815C8374.75 603.929 8340.69 531.676 8250.76 531.676Z" fill="#006DF4"/>
</svg>
